# xmcd
#
# Track frame offsets: 
#        150
#        12505
#        31984
#        42265
#        56579
#        68707
#        81296
#        97917
#        124177
#        139957
#        158403
#        173261
#        185476
#        202846
#
# Disc length: 2960 seconds
#
# Revision: 0
# Processed by: cddbd v1.5.2PL0 Copyright (c) Steve Scherf et al.
# Submitted via: ExactAudioCopy v0.99pb1
#
DISCID=ad0b8e0e
DTITLE=John Weston - I Tried To Hide From The Blues
DYEAR=2001
DGENRE=Blues
TTITLE0=I Tried To Hide From The Blues (Don't Even Try)
TTITLE1=Gotta Deal With The Blues
TTITLE2=Pretty, Pretty Blues
TTITLE3=Monkey On My Back
TTITLE4=I'm Not Your Junkman
TTITLE5=Blinded Fool
TTITLE6=Key To The Highway
TTITLE7=A Man Down There
TTITLE8=You're The Same
TTITLE9=Of All The Girls In The World
TTITLE10=Phony Woman
TTITLE11=Not Guilty
TTITLE12=Mama, I Love Her
TTITLE13=Bubba's Blues
EXTD=
EXTT0=
EXTT1=
EXTT2=
EXTT3=
EXTT4=
EXTT5=
EXTT6=
EXTT7=
EXTT8=
EXTT9=
EXTT10=
EXTT11=
EXTT12=
EXTT13=
PLAYORDER=
